<?xml version="1.0" encoding="utf-8"?>
<!DOCTYPE svg PUBLIC "-//W3C//DTD SVG 1.1//EN" "http://www.w3.org/Graphics/SVG/1.1/DTD/svg11.dtd">
<svg xmlns="http://www.w3.org/2000/svg" xml:space="preserve" id="svg2985" x="0" y="0" enable-background="new -214.5 269.4 255 361.9" version="1.1" viewBox="-214.5 269.4 255 361.9">
  <style>
    .st0{enable-background:new}.st1{fill:#cddacd}.st2{fill:#053d05}.st3{fill:#024c02}.st4{fill:#005f00}.st5{fill:#fff}.st6{filter:url(#filter3970-5)}.st9{fill:#fff;stroke:#000;stroke-width:3;stroke-linecap:round;stroke-linejoin:round;stroke-miterlimit:10}
  </style>
  <switch>
    <g>
      <filter id="filter3970-5" width="1.2171124" height="1.2150326" x="-.10855621" y="-.10751629" color-interpolation-filters="sRGB">
        <feGaussianBlur id="feGaussianBlur3972-8" stdDeviation=".12800763"/>
      </filter>
      <g id="g4630" class="st0" transform="matrix(1.0006 0 0 1 -1.3758072 203.40625)">
        <g id="g3062">
          <path id="rect4031" d="m42 368.9-.2-46.2.1-75.4c0-5.5-4.5-14.9-10-14.7 5.5.3 10-9.1 10-14.5l.1-115.8c.1-22.9-15.9-36.1-40.4-36.1h-154.5c-12.3 0-27.6 14-35.7 21.5-8 7.5-24.3 22.1-24.3 33.6v124.8c0 5.1 3.9 14.2 9 14.5-5 0-9 9-9 14v111.7c0 22.9 5.6 41.3 30.1 41.3l162.2.3c6.4 0 24.3-17.4 32.3-24.8 8.1-7.4 30.3-22.8 30.3-34.2z"/>
          <path id="rect3767" d="M29.3 360.1V255.5c0-13.8-11.1-24.8-24.9-24.9l-152.4-.9c-2 0-32 12.6-32 25.8v104.6c0 13.8 11.1 24.9 24.9 24.9H4.4c13.8 0 24.9-11.1 24.9-24.9z" class="st1"/>
          <path id="rect3861" d="M14.3 375.1v-99.6c0-13.8-11.2-24.9-24.9-24.9H-170c-13.8 0-24.9 11.1-24.9 24.9v99.6c0 13.8 11.2 24.9 24.9 24.9h159.4c13.8 0 24.9-11.2 24.9-24.9z" class="st2"/>
          <path id="rect3765" d="M-.6 385V280.4c0-13.8-11.2-24.9-24.9-24.9H-175c-13.8 0-24.9 11.1-24.9 24.9V385c0 13.8 11.2 24.9 24.9 24.9h149.4c13.8 0 25-11.1 25-24.9z" class="st3"/>
          <path id="rect3008" d="M-10.6 285.4V395c0 11-8.9 19.9-19.9 19.9h-149.4c-11 0-19.9-8.9-19.9-19.9V285.4c0-11 8.9-19.9 19.9-19.9h149.4c11 0 19.9 8.9 19.9 19.9z" class="st4"/>
          <path id="path3932" d="M16.8 235.4c-1.5 0-2.8 1.3-2.8 2.8s1.3 2.8 2.8 2.8 2.8-1.3 2.8-2.8-1.2-2.8-2.8-2.8z" class="st5"/>
          <g id="path3936" class="st6">
            <linearGradient id="SVGID_1_" x1="-330.5643" x2="-333.68" y1="590.4699" y2="587.0006" gradientTransform="matrix(0 -7.1056 6.6848 0 -3926.449 -2112.4648)" gradientUnits="userSpaceOnUse">
              <stop offset="0" stop-color="#fff"/>
              <stop offset="1" stop-color="#fff" stop-opacity="0"/>
            </linearGradient>
            <path fill="url(#SVGID_1_)" d="m18.2 240.4-24.6 28.8-6-8.2 28.3-25.2z"/>
          </g>
          <path id="path3882" d="M-5.1 252.7c-4.8 0-8.7 3.9-8.7 8.7 0 4.8 3.9 8.7 8.7 8.7 4.8 0 8.7-3.9 8.7-8.7 0-4.8-3.9-8.7-8.7-8.7z" class="st5"/>
        </g>
      </g>
      <g id="g4630_1_" class="st0" transform="matrix(1.0006 0 0 1 -1.3758072 203.40625)">
        <g id="g3062_1_">
          <path id="rect3767_1_" d="M29.3 209.1V104.5c0-13.8-11.1-24.8-24.9-24.9l-152.4-.9c-2 0-32 12.6-32 25.8v104.6c0 13.8 11.1 24.9 24.9 24.9H4.4c13.8 0 24.9-11.1 24.9-24.9z" class="st1"/>
          <path id="rect3861_1_" d="M14.3 224.1v-99.6c0-13.8-11.2-24.9-24.9-24.9H-170c-13.8 0-24.9 11.1-24.9 24.9v99.6c0 13.8 11.2 24.9 24.9 24.9h159.4c13.8 0 24.9-11.2 24.9-24.9z" class="st2"/>
          <path id="rect3765_1_" d="M-.6 234V129.4c0-13.8-11.2-24.9-24.9-24.9H-175c-13.8 0-24.9 11.1-24.9 24.9V234c0 13.8 11.2 24.9 24.9 24.9h149.4c13.8 0 25-11.1 25-24.9z" class="st3"/>
          <path id="rect3008_1_" d="M-10.6 134.4V244c0 11-8.9 19.9-19.9 19.9h-149.4c-11 0-19.9-8.9-19.9-19.9V134.4c0-11 8.9-19.9 19.9-19.9h149.4c11 0 19.9 8.9 19.9 19.9z" class="st4"/>
          <path id="path3932_1_" d="M16.8 84.4c-1.5 0-2.8 1.3-2.8 2.8 0 1.5 1.3 2.8 2.8 2.8s2.8-1.3 2.8-2.8c0-1.6-1.2-2.8-2.8-2.8z" class="st5"/>
          <g id="path3936_1_" class="st6">
            <linearGradient id="SVGID_2_" x1="-309.3133" x2="-312.429" y1="590.4699" y2="587.0006" gradientTransform="matrix(0 -7.1056 6.6848 0 -3926.449 -2112.4648)" gradientUnits="userSpaceOnUse">
              <stop offset="0" stop-color="#fff"/>
              <stop offset="1" stop-color="#fff" stop-opacity="0"/>
            </linearGradient>
            <path fill="url(#SVGID_2_)" d="m18.2 89.4-24.6 28.8-6-8.2 28.3-25.2z"/>
          </g>
          <path id="path3882_1_" d="M-5.1 101.7c-4.8 0-8.7 3.9-8.7 8.7 0 4.8 3.9 8.7 8.7 8.7 4.8 0 8.7-3.9 8.7-8.7 0-4.8-3.9-8.7-8.7-8.7z" class="st5"/>
        </g>
      </g>
      <path d="M-61.1 507.6c-.7 7.5-4.2 11.2-10.8 11.2-7.2 0-10.8-3.7-10.8-11 0-8.3 5.5-12.4 16.4-12.4 9.6 0 18.3 3.9 26 11.6 9 8.8 13.5 20 13.5 33.5 0 14.7-4.4 26.4-13.1 35.2-7 7.2-16.2 10.8-27.8 10.8-14.6 0-27.2-7.9-37.8-23.6l-4.7-6.9c-7.4-11-17.7-16.5-30.9-16.5h-5.2v-9h5.6c13.9 0 25.6 5.1 34.9 15.2l3.8 4.1c7.3 7.7 12.8 12.7 16.4 14.9 4.9 3 10.7 4.5 17.4 4.5 9.9 0 17.9-2.9 24-8.8 6-5.6 9-12.8 9-21.8 0-9.7-3.6-17.8-10.8-24.3-4.3-3.8-9.4-6.1-15.1-6.7zm-102.8 28.6c0 3.2-1.2 6-3.6 8.5-2.6 2.6-5.5 3.8-8.9 3.8-8.3 0-12.4-4.1-12.4-12.3 0-8.4 4.1-12.6 12.4-12.6 3.2 0 6.1 1.3 8.7 3.8 2.5 2.5 3.8 5.4 3.8 8.8z" class="st9"/>
      <path d="M-61.1 356.6c-.7 7.5-4.2 11.2-10.8 11.2-7.2 0-10.8-3.7-10.8-11 0-8.3 5.5-12.4 16.4-12.4 9.6 0 18.3 3.9 26 11.6 9 8.8 13.5 20 13.5 33.5 0 14.7-4.4 26.4-13.1 35.2-7 7.2-16.2 10.8-27.8 10.8-14.6 0-27.2-7.9-37.8-23.6l-4.7-6.9c-7.4-11-17.7-16.5-30.9-16.5h-5.2v-9h5.6c13.9 0 25.6 5.1 34.9 15.2l3.8 4.1c7.3 7.7 12.8 12.7 16.4 14.9 4.9 3 10.7 4.5 17.4 4.5 9.9 0 17.9-2.9 24-8.8 6-5.6 9-12.8 9-21.8 0-9.7-3.6-17.8-10.8-24.3-4.3-3.8-9.4-6.1-15.1-6.7zm-102.8 28.6c0 3.2-1.2 6-3.6 8.5-2.6 2.6-5.5 3.8-8.9 3.8-8.3 0-12.4-4.1-12.4-12.3 0-8.4 4.1-12.6 12.4-12.6 3.2 0 6.1 1.3 8.7 3.8 2.5 2.5 3.8 5.4 3.8 8.8z" class="st9"/>
    </g>
  </switch>
</svg>