<?xml version="1.0" encoding="utf-8"?>
<!DOCTYPE svg PUBLIC "-//W3C//DTD SVG 1.1//EN" "http://www.w3.org/Graphics/SVG/1.1/DTD/svg11.dtd">
<svg xmlns="http://www.w3.org/2000/svg" xml:space="preserve" id="svg2985" x="0" y="0" enable-background="new -192 293.9 210 255" version="1.1" viewBox="-192 293.9 210 255">
  <style>
    .st3{fill:#fff}.st7{stroke:#d37f11;stroke-width:4.8}.st7,.st8,.st9{fill:none;stroke-linecap:round;stroke-linejoin:round}.st8{stroke:#2a3b92;stroke-width:2.7}.st9{stroke:#bf3718;stroke-width:2.3}.st10{fill:#038249}
  </style>
  <switch>
    <g>
      <filter id="filter3970-5" width="1.2171124" height="1.2150326" x="-.10855621" y="-.10751629" color-interpolation-filters="sRGB">
        <feGaussianBlur id="feGaussianBlur3972-8" stdDeviation=".12800763"/>
      </filter>
      <g id="g4630" transform="matrix(1.0006 0 0 1 -1.3758072 203.40625)">
        <g id="g3062">
          <path id="rect4031" d="m-131.2 90.5 46.1.2 68.4-.2c22.9-.1 36.1 15.9 36.1 40.4v154.6c0 12.3-14 27.7-21.4 35.7s-22.1 24.3-33.6 24.3h-113c-22.9 0-41.3-5.6-41.3-30.2l-.3-162.3c0-6.4 17.3-24.3 24.8-32.4 7.4-8 22.7-30.2 34.2-30.1z"/>
          <path id="rect3767" fill="#005f00" d="M-122.4 103.2h104.5c13.8 0 24.8 11.1 24.9 24.9l.9 152.4c0 2-12.6 32-25.8 32h-104.5c-13.8 0-24.9-11.1-24.9-24.9V128.1c0-13.8 11.1-24.9 24.9-24.9z"/>
          <path id="rect3861" fill="#cddacd" d="M-137.4 118.1h99.6c13.7 0 24.9 11.2 24.9 24.9v159.5c0 13.8-11.1 24.9-24.9 24.9h-99.6c-13.7 0-24.9-11.2-24.9-24.9V143.1c0-13.8 11.2-25 24.9-25z"/>
          <path id="rect3765" d="M-147.3 133.1h104.5c13.7 0 24.9 11.2 24.9 24.9v149.5c0 13.8-11.1 24.9-24.9 24.9h-104.5c-13.7 0-24.9-11.2-24.9-24.9V158c0-13.7 11.1-24.9 24.9-24.9z" class="st3"/>
          <linearGradient id="rect3008_1_" x1="-324.8826" x2="-324.8826" y1="569.5873" y2="531.0685" gradientTransform="matrix(4.9807 0 0 -4.9841 1515.6201 2981.9607)" gradientUnits="userSpaceOnUse">
            <stop offset="0" stop-color="#d0e4cc"/>
            <stop offset="1" stop-color="#fbffec"/>
          </linearGradient>
          <path id="rect3008" fill="url(#rect3008_1_)" d="M-157.3 143.1h109.5c11 0 19.9 8.9 19.9 19.9v149.5c0 11-8.9 19.9-19.9 19.9h-109.5c-11 0-19.9-8.9-19.9-19.9V163c0-11 8.9-19.9 19.9-19.9z"/>
          <path id="path3932" d="M2.2 115.7c0 1.5-1.3 2.8-2.8 2.8s-2.8-1.3-2.8-2.8 1.3-2.8 2.8-2.8 2.8 1.2 2.8 2.8z" class="st3"/>
          <g id="path3936" filter="url(#filter3970-5)">
            <linearGradient id="SVGID_1_" x1="-315.7709" x2="-318.8866" y1="590.4699" y2="587.0007" gradientTransform="matrix(7.1013 0 0 -6.6887 2243.616 4061.2654)" gradientUnits="userSpaceOnUse">
              <stop offset="0" stop-color="#fff"/>
              <stop offset="1" stop-color="#fff" stop-opacity="0"/>
            </linearGradient>
            <path fill="url(#SVGID_1_)" d="m-2.8 114.3-28.8 24.6 8.2 6 25.2-28.3z"/>
          </g>
          <path id="path3882" d="M-15 137.6c0 4.8-3.9 8.7-8.7 8.7-4.8 0-8.7-3.9-8.7-8.7 0-4.8 3.9-8.7 8.7-8.7 4.7 0 8.7 3.9 8.7 8.7z" class="st3"/>
        </g>
      </g>
      <path id="path2456_1_" d="M-59.2 451.6c17.9-24.2-1.8-49.6 14.5-59.7 9.4-6.5 8.4-13.4-1.7-9.5-26.6 9.5-9.9 44.5-17.1 54.2" class="st7"/>
      <path id="path3232_14_" d="M-121.7 380.9c-8.9 7-17.2 6.7-25-.6" class="st8"/>
      <path id="path3232_5_" d="M-146.9 355.9c12.2 6.1 22.1 13.6 25.3 25" class="st8"/>
      <path id="path3234_2_" d="M-94.2 377.1c2.3 4.1 6.1 8.8 11.5 11.3" class="st8"/>
      <path id="path3234_1_" d="M-68.4 358.6c-9.6 4.9-23 4.5-25.9 18.5" class="st8"/>
      <path id="path3236_1_" d="M-136.8 422.7c29.3 27 36.7 3.2 45.7-5" class="st8"/>
      <path id="path3256_1_" d="M-73 440.6c4.7 17.4-4.1 31.8-5.2 50.1" class="st8"/>
      <path id="path3258_1_" d="M-116.1 489.1c-6.9-3.2-9.8-9.5-11.9-16.3" class="st8"/>
      <path id="path3228_5_" d="M-130.3 404.4c4.1 4.6 3.3 12.8 17.9 8.4" class="st9"/>
      <path id="path3228_4_" d="m-120.1 405.5-10.2-1.1" class="st9"/>
      <path id="path3228_3_" d="M-109.6 425.8c-1-8-2.4-19.1-10.5-20.3" class="st9"/>
      <path id="path3228_2_" d="m-104.3 426-5.4-.2" class="st9"/>
      <path id="path3228_1_" d="M-84 403.8c-7.7 4.2-19.8-6.8-20.3 22.3" class="st9"/>
      <path id="path3230_1_" d="M-102.1 413.1c4.5-1.7 11.6 3.2 12.3-8" class="st9"/>
      <path id="path3238_2_" d="m-108.6 429.4-1-3.7" class="st9"/>
      <path id="path3238_1_" d="m-104.5 425.8-4.2 3.5" class="st9"/>
      <path id="path3240_1_" d="m-115.8 431.4 7-2" class="st9"/>
      <path id="path3242_1_" d="M-106.6 431.4c-.6-.7-1.5-1.3-2-2" class="st9"/>
      <path id="path3244_1_" d="M-98.9 412.5c-2.1-.9-1.1-2.6-1.4-4" class="st9"/>
      <path id="path3246_1_" d="M-93.1 405c1.5 1.5 3 3 2 5.6" class="st9"/>
      <path id="path3248_1_" d="M-116.2 407.4c1.2 2.6 1 4.7-1 6.2" class="st9"/>
      <path id="path3250_1_" d="M-124.8 405.1c-1.8 1.6-1.9 3.9-1.6 5.5" class="st9"/>
      <path id="path3252_1_" d="M-94.9 408.3c0 .7-.6 1.3-1.3 1.3-.7 0-1.3-.6-1.3-1.3s.6-1.3 1.3-1.3c.7 0 1.3.5 1.3 1.3h0z" class="st9"/>
      <path id="path3254_1_" d="M-119.2 408.3c0 .8-.6 1.4-1.4 1.4-.8 0-1.4-.6-1.4-1.4 0-.8.6-1.4 1.4-1.4.8.1 1.4.7 1.4 1.4h0z" class="st9"/>
      <path id="path2456_2_" d="M-77.8 516.1c.7 3.5 2.8 8.4 1 9.9-1.5 1.3-3.1-.4-4.3-1.8.5 1.8-.3 3.3-1.2 3.8-1.2.7-3.9.7-5.5-2.7l-.7 1.8c-.5 1.5-2.2 2.4-3.7 2-6-1.6-7.8-5.2-9.1-9-1.2-3.7 1.6-6.7 2.8-9.9.5-6.8.6-13.5 0-20.3-6.1 1.9-12.2 1.7-18.3-.6 0 11.4 3.2 23.3-.2 34.2-1.8 4.3-5.1 5.9-8.1 5.2-1.7-.4-2.5-1.9-2.6-3.2h0c-.4 4.6-3.3 4.4-5.6 4-2.4-1-3-3.1-1.6-8.2-1.2 3.1-2.5 4.1-4.4 3.6-2.5-1-2.3-3.9-2.1-7.6.1-2.1 1.1-4 2.7-5.2h0c-.2-11 .2-22-2.6-33-14-38.2-2.5-59.2-11.4-67.6-4.4-4.1.3-22.6 5.3-30.8.2-8.6-3.3-19 .8-25.7 6.6 1.5 13.2 2.6 19.9 7.8 13.4-4.6 16.5-2.1 21.9-1.2 12.1-2.7 24.6-4.5 38.8-3-2.4 3.1-5.1 6.3-7.4 9.3-2.6 3.4-4.1 7.6-4.1 11.9 0 6.6-2.7 8.2-5.6 9.6 2.1 7.2.8 11.4-1.8 20.9 48.9 36.8 16.8 98 7 98.2l.1 7.6z" class="st7"/>
      <path id="path3232_1_" d="M-170.6 398.3s.9.2 2.4.4c.8.1 1.7.3 2.8.5.5.1 1.1.2 1.7.4.6.1 1.2.4 1.9.6 1.3.4 2.7.9 4.1 1.4 1.5.5 3 1.1 4.6 1.6 1.6.6 3.2 1.2 4.9 1.9.8.3 1.7.7 2.5 1 .8.4 1.6.7 2.5 1.1 1.7.7 3.3 1.5 4.9 2.3 1.6.8 3.1 1.6 4.6 2.5.4.2.7.4 1.1.6.3.2.7.5 1 .7.7.5 1.4.9 2 1.4.6.5 1.2.9 1.8 1.4.6.4 1.1 1 1.6 1.4.5.5 1 .8 1.4 1.4.4.5.7 1 1.1 1.4.6.9 1.1 1.8 1.5 2.4.7 1.5 1 2.3 1 2.3s-.6-.7-1.5-2c-.5-.6-1.2-1.3-1.9-2-.4-.4-.8-.7-1.3-1.1-.2-.2-.4-.4-.7-.6-.2-.2-.5-.4-.7-.6-.5-.4-1-.9-1.6-1.3-.6-.4-1.2-.9-1.8-1.3-.6-.5-1.3-.9-1.9-1.3-.3-.2-.7-.4-1-.7-.4-.2-.7-.4-1.1-.6-1.4-.9-2.9-1.7-4.5-2.5s-3.2-1.6-4.8-2.3c-.8-.4-1.6-.7-2.4-1.1-.8-.3-1.6-.7-2.5-1-1.6-.7-3.3-1.2-4.8-1.8-1.6-.6-3.1-1.1-4.6-1.6-1.5-.5-2.8-.9-4.1-1.3-.6-.2-1.3-.3-1.8-.6-.6-.2-1.1-.5-1.6-.7-1-.4-1.9-.8-2.6-1.1-1.3-.8-2.2-1.2-2.2-1.2z" class="st10"/>
      <path id="path3232_2_" d="M-172.5 413.6s.8-.1 2.3-.3c.7-.1 1.6-.2 2.7-.3.5 0 1.1-.1 1.7-.1h1.8c1.3 0 2.7.1 4.1.2 1.5.1 3 .2 4.6.3 1.6.2 3.2.3 4.9.6.8.1 1.7.2 2.5.4.8.1 1.7.3 2.5.5.8.1 1.7.3 2.5.5s1.7.4 2.5.6c.8.2 1.6.5 2.4.7.8.2 1.6.5 2.3.8.8.2 1.5.5 2.2.8l2.1.9c.7.3 1.3.6 1.9.9.6.3 1.2.7 1.8 1 1.2.6 2.1 1.4 2.9 2.1l1.9 1.9 1.5 1.8s-.7-.5-1.9-1.4c-.6-.4-1.4-.9-2.2-1.4-.5-.2-.9-.5-1.4-.7-.3-.1-.5-.3-.7-.5-.2-.2-.5-.3-.8-.5-.5-.3-1.1-.6-1.7-1-.6-.3-1.2-.6-1.9-.9-.6-.3-1.3-.6-2-.9-.7-.3-1.4-.6-2.2-.8-.7-.2-1.5-.5-2.3-.8-.8-.2-1.6-.4-2.4-.7l-2.4-.6c-.8-.2-1.6-.4-2.5-.5-.8-.2-1.6-.3-2.5-.5-.8-.1-1.7-.2-2.5-.4-1.6-.3-3.3-.4-4.8-.6-1.6-.1-3.1-.3-4.5-.3-1.4-.1-2.8-.2-4.1-.2h-1.8c-.6-.1-1.1-.1-1.6-.2-1-.1-1.9-.2-2.7-.3-1.3 0-2.2-.1-2.2-.1z" class="st10"/>
      <path id="path3232_3_" d="M-170.6 427.7s.7-.3 2-.8c.6-.2 1.4-.5 2.3-.9.5-.2.9-.3 1.5-.5.5-.2 1.1-.2 1.7-.3 1.2-.2 2.4-.5 3.7-.7 1.3-.3 2.7-.5 4.2-.7l4.5-.6c1.6-.2 3.1-.4 4.7-.4 1.6-.1 3.2-.1 4.7-.2 1.6 0 3.1.1 4.6.2.4 0 .7.1 1.1.1.4.1.7.1 1.1.2.7.1 1.4.2 2.1.4.7.2 1.3.3 2 .5l1.8.6c1.2.3 2.1.9 3 1.4.8.6 1.5 1 2.1 1.4 1.1.9 1.7 1.4 1.7 1.4s-.7-.3-2-.8c-.6-.3-1.4-.5-2.3-.8-.4-.2-.9-.3-1.4-.4-.5-.1-1-.4-1.5-.6-.5-.2-1.1-.3-1.7-.5-.6-.1-1.2-.3-1.9-.4-.6-.2-1.3-.2-2-.3-.3-.1-.7-.1-1-.2-.4 0-.7-.1-1.1-.1-1.4-.2-2.9-.2-4.4-.2-1.5 0-3.1 0-4.6.2-1.5.1-3.1.3-4.6.4l-4.5.6c-1.4.2-2.8.5-4.2.7-1.3.3-2.6.5-3.7.7-.6.1-1.1.3-1.6.3s-1 .1-1.5.1c-1 .1-1.8.2-2.5.2-1.5-.1-2.3 0-2.3 0z" class="st10"/>
      <path id="path3232_11_" d="M-98.3 421.2s.6-.7 1.7-1.8c.6-.5 1.3-1.2 2.2-1.9.9-.6 1.9-1.4 3.2-1.9.6-.3 1.3-.6 2-.9.7-.2 1.4-.5 2.1-.8.7-.3 1.5-.5 2.3-.7.8-.2 1.6-.5 2.4-.6.8-.2 1.7-.4 2.5-.5.9-.1 1.7-.3 2.6-.4.9-.2 1.8-.2 2.7-.3.9-.1 1.8-.2 2.7-.2 1.8-.1 3.6-.2 5.4-.2 1.8 0 3.5.1 5.2.2 1.7.1 3.3.3 4.9.4 1.5.2 3 .4 4.3.6.7.1 1.3.2 1.9.4.6.2 1.2.3 1.7.5 1.1.3 2 .6 2.7.9 1.5.5 2.3.8 2.3.8s-.9-.1-2.5-.3c-.8-.1-1.7-.3-2.8-.3-.5 0-1.1-.1-1.7-.1-.6 0-1.2-.2-1.9-.3-1.3-.2-2.7-.4-4.3-.6-1.5-.1-3.1-.3-4.8-.4-1.7-.1-3.4-.2-5.1-.2-1.7 0-3.5.1-5.3.2-.9 0-1.8.2-2.6.2-.9.1-1.8.2-2.6.3-.9.1-1.7.3-2.6.4-.8.2-1.7.4-2.5.5l-2.4.6c-.8.2-1.5.4-2.2.7-.7.3-1.4.5-2.1.7-.6.3-1.3.6-1.9.8-.3.1-.6.3-.9.4-.3.2-.5.3-.8.4-.6.2-1.1.5-1.6.7-.9.5-1.8 1-2.4 1.3-1.1.9-1.8 1.4-1.8 1.4z" class="st10"/>
      <path id="path3232_9_" d="M-98.8 423.1s.8-.5 2.1-1.3c.7-.4 1.6-.7 2.6-1.2.5-.2 1.1-.4 1.7-.6.6-.2 1.2-.3 1.9-.4 1.3-.2 2.8-.5 4.3-.6.8-.1 1.6-.2 2.4-.2.8 0 1.6-.1 2.5-.1.8-.1 1.7-.1 2.6-.1h2.6c1.8.1 3.6.1 5.4.3 1.8.1 3.6.4 5.3.6 1.7.3 3.5.6 5.1.9 1.6.4 3.2.7 4.7 1.2.7.2 1.5.4 2.2.6.7.2 1.3.5 2 .7.6.3 1.3.4 1.8.7l1.5.9c1 .5 1.8 1 2.4 1.5 1.3.9 2 1.4 2 1.4s-.8-.3-2.3-.9c-.7-.3-1.6-.6-2.6-.9-1-.3-2.2-.7-3.4-1.2-.6-.2-1.3-.5-1.9-.7l-2.1-.6c-1.4-.5-3-.8-4.6-1.2-1.6-.3-3.3-.6-5-.9-1.7-.2-3.5-.5-5.2-.6-1.8-.2-3.5-.2-5.2-.3h-2.6c-.8 0-1.7 0-2.5.1-.8 0-1.6.1-2.4.1-.8.1-1.6.2-2.3.2-1.5.1-2.9.4-4.2.6-.7.1-1.2.3-1.8.4-.6.1-1.2.1-1.7.2-1 .2-1.9.4-2.7.6-1.7.5-2.6.8-2.6.8z" class="st10"/>
      <path id="path3232_4_" d="M-98.8 424.9s.8-.3 2.3-.8c.7-.2 1.7-.4 2.8-.7.5-.1 1.1-.2 1.7-.3.6-.1 1.3 0 1.9-.1 1.3.1 2.8 0 4.3.2.8.1 1.6.1 2.4.2l2.4.3c.8.1 1.7.2 2.5.4s1.7.3 2.6.5c1.7.4 3.5.8 5.2 1.3.9.3 1.7.5 2.6.7.8.3 1.7.6 2.5.8l2.4.9 2.4.9c.8.3 1.5.7 2.2 1 .4.2.7.3 1.1.5.3.2.7.4 1 .6.7.4 1.3.7 2 1.1.6.3 1.2.7 1.8 1.1.6.4 1.2.6 1.6 1 .5.4.9.8 1.3 1.2.8.7 1.5 1.4 2 2 1 1.2 1.6 1.9 1.6 1.9s-.8-.5-2-1.4c-.6-.5-1.4-.9-2.4-1.5-.9-.5-2-1.1-3.1-1.8-.6-.3-1.1-.7-1.7-1.1-.6-.3-1.3-.7-1.9-1-.3-.2-.7-.4-1-.5-.3-.2-.7-.3-1.1-.5-.7-.3-1.4-.7-2.2-1-.8-.3-1.5-.6-2.3-.9l-2.4-.9c-.8-.3-1.6-.6-2.5-.8-.8-.3-1.7-.5-2.5-.7-1.7-.5-3.4-.9-5.1-1.3-.8-.2-1.7-.3-2.5-.5s-1.6-.3-2.5-.4l-2.4-.3c-.8-.1-1.6-.1-2.3-.2-1.5-.2-2.9-.1-4.2-.2-.7 0-1.3.1-1.9 0-.6 0-1.2-.1-1.7-.1h-2.8c-1.3.3-2.1.4-2.1.4z" class="st10"/>
    </g>
  </switch>
</svg>