<?xml version="1.0" encoding="utf-8"?>
<svg xmlns="http://www.w3.org/2000/svg" xml:space="preserve" id="svg2985" x="0" y="0" enable-background="new -192 293.9 210 255" version="1.1" viewBox="-192 293.9 210 255">
  <style>
    .st3{fill:#fff}
  </style>
  <switch>
    <g>
      <filter id="filter3970-5" width="1.2171124" height="1.2150326" x="-.10855621" y="-.10751629" color-interpolation-filters="sRGB">
        <feGaussianBlur id="feGaussianBlur3972-8" stdDeviation=".12800763"/>
      </filter>
      <g id="g4630" transform="matrix(1.0006 0 0 1 -1.3758072 203.40625)">
        <g id="g3062">
          <path id="rect4031" d="m-131.2 90.5 46.1.2 68.4-.2c22.9-.1 36.1 15.9 36.1 40.4v154.6c0 12.3-14 27.7-21.4 35.7s-22.1 24.3-33.6 24.3h-113c-22.9 0-41.3-5.6-41.3-30.2l-.3-162.3c0-6.4 17.3-24.3 24.8-32.4 7.4-8 22.7-30.2 34.2-30.1z"/>
          <path id="rect3767" fill="#005f00" d="M-122.4 103.2h104.5c13.8 0 24.8 11.1 24.9 24.9l.9 152.4c0 2-12.6 32-25.8 32h-104.5c-13.8 0-24.9-11.1-24.9-24.9V128.1c0-13.8 11.1-24.9 24.9-24.9z"/>
          <path id="rect3861" fill="#cddacd" d="M-137.4 118.1h99.6c13.7 0 24.9 11.2 24.9 24.9v159.5c0 13.8-11.1 24.9-24.9 24.9h-99.6c-13.7 0-24.9-11.2-24.9-24.9V143.1c0-13.8 11.2-25 24.9-25z"/>
          <path id="rect3765" d="M-147.3 133.1h104.5c13.7 0 24.9 11.2 24.9 24.9v149.5c0 13.8-11.1 24.9-24.9 24.9h-104.5c-13.7 0-24.9-11.2-24.9-24.9V158c0-13.7 11.1-24.9 24.9-24.9z" class="st3"/>
          <linearGradient id="rect3008_1_" x1="-324.8826" x2="-324.8826" y1="569.5873" y2="531.0685" gradientTransform="matrix(4.9807 0 0 -4.9841 1515.6201 2981.9607)" gradientUnits="userSpaceOnUse">
            <stop offset="0" stop-color="#d0e4cc"/>
            <stop offset="1" stop-color="#fbffec"/>
          </linearGradient>
          <path id="rect3008" fill="url(#rect3008_1_)" d="M-157.3 143.1h109.5c11 0 19.9 8.9 19.9 19.9v149.5c0 11-8.9 19.9-19.9 19.9h-109.5c-11 0-19.9-8.9-19.9-19.9V163c0-11 8.9-19.9 19.9-19.9z"/>
          <path id="path3932" d="M2.2 115.7c0 1.5-1.3 2.8-2.8 2.8s-2.8-1.3-2.8-2.8 1.3-2.8 2.8-2.8 2.8 1.2 2.8 2.8z" class="st3"/>
          <g id="path3936" filter="url(#filter3970-5)">
            <linearGradient id="SVGID_1_" x1="-315.7709" x2="-318.8866" y1="590.4699" y2="587.0007" gradientTransform="matrix(7.1013 0 0 -6.6887 2243.616 4061.2654)" gradientUnits="userSpaceOnUse">
              <stop offset="0" stop-color="#fff"/>
              <stop offset="1" stop-color="#fff" stop-opacity="0"/>
            </linearGradient>
            <path fill="url(#SVGID_1_)" d="m-2.8 114.3-28.8 24.6 8.2 6 25.2-28.3z"/>
          </g>
          <path id="path3882" d="M-15 137.6c0 4.8-3.9 8.7-8.7 8.7-4.8 0-8.7-3.9-8.7-8.7 0-4.8 3.9-8.7 8.7-8.7 4.7 0 8.7 3.9 8.7 8.7z" class="st3"/>
        </g>
      </g>
      <path fill="#bf3718" d="M-66.9 399.6c-1.1 1.5-1.5 3.5-2.2 5-1.8 4.8-7 15.5-12.8 17.6-1 .3-1.9.6-2.7 1.1-2.5-1.6-6.5-6.4-8.4-8.8-3.3-.1-6.4-.5-9.6.4-6.2 1.8-12.7 2.8-19.1 4.1-1.8 1.6-4.5 2.1-7 1.8-4.4-2.9-9.1-5.8-10.2-10.6-1-4.7-.8-14.6-3.4-18.4-1.6-2.2-4.4-4-4.2-6.6 1.6-2.6 11.8 3.8 13.3 5.1l1.7-.2c.2-1.2 1.5-1.9 2.1-3 1.7-2.8 3.9-3.4 7.1-4.8 5.8-2.3 37.6-4.6 45.3-4.5 3.9 0 11 3.1 12.8 5.9 7.4 4.6-2.3 10.5-2.7 15.9zm-9-13.4c-3.2-.9-6.3-1.9-9.7-2l-.5-.1c-2.2.1-4.4.4-6.5.5-.5.2-1.5.4-1.6.9 1.9 3.7 2.2 3.8.8 7.6 1.3 0 2.7.1 3.8.7 5.6.1 4 1.7 5.8 4.7.1 3.4-4.1 2.9-6.8 3.8-.8 1-5.2 2.3-6.4 1-1.5-.2-4 2.1-6.2-.1.6-.4 5.1-2.9 3.9-3.4-2.7-3.5-4.8-7.9-3-12l-1-.6c-1.1.2-3.6-.4-4.4.3-1.2.2-2.1 1-3.4 1.3.4 2.5 1.1 8 0 10.2-5.8 4.6-1.2 4.9-11.9 10.9-1.5 0-2.5-.7-3.3-1.6-1.8-6.7 6.3-4.5 6.7-14.9-.5-1-.5-2-1.2-3l-1.2-.2c-1.7.2-3.2.9-4.7 1.2-6.8 4.4-3.2 14.7-1.8 20.5 3.4 1.6 10.1-1 13.7-1.4 1.6-1.1 3.9-.5 5.6-1.6 1.2.6 3.3-.3 4.8-.1.6-1.2 2.2 0 3.2-1.2l.5.5c3.3-.1 5.3-.8 8.4.7 2.2 1.1 9.9 2.8 10.8 0 1.6-1.1 8.1-19.9 7.4-21.3-.3-.6-1-1-1.8-1.3z"/>
      <path fill="#038249" d="M-81.8 473.1c-6.9 1.6-26.7 8-30.5 12.6-.5 1.7-.7 4 1.1 5.2 3.4-.8 20.5-4.9 21.8-6.4 2.5-.8 3.5-2.2 6.5-1.2 2.9.9 6.2 2 8.5 3.7 9.2 6.6-1.5 13.7-5.2 19.8.2 2.1 4 2.6 2.1 5.6-4.8 2.2-14.8-3.3-25.7 3-2.2 1.3-4.1 2.8-7 1.9-6.5-2-8.2-18.4-9.2-23.5-.7-3.6.5-7.8 4.1-10.3 6.5-4.3 16.1-5.5 22.7-10-11.5 1.1-21.3 5.2-30.8 10.8-2.1 3.7-2.4 7.9-5.3 11.3 0 1.1-.7 2-1.2 3.1-2.8 6.6-8 14.3-16.8 16.6-.7 1.7-3.6 1.7-4.7.5 1.3-2.3 2.3-4.7 3.8-6.9l2.5.6c7.1-6.9 12.1-19.8 13.4-28.7-.8-1.9-5.3-1.9-4.4-4.9 1.5-1.1 3.2-2.1 5.1-2.8l.7-.7c.1-4.2 3.3-9.9-1.5-13.2-.7-2.2-3-3.4-1.8-5.9 2.9-.3 5.3 1.3 8 1.9 3.5 2.3 6.7.9 9.5-1.3 3.5-2.6 14.4-10.5 16-12.9-1.1-.7-2.3-1.7-1.3-2.9 2.5.5 5.5-.1 7.8 1 3-.6 8.6 3 9.7 5.1.7 1.7-.5 2.5-.2 4.2-2.7 1.1-5.7 1.4-8.4 2.5-8.8 3.7-18.4 6-27.1 10 .8 2.9-.5 8-1.7 10.8 4.6-.3 35.9-5.9 38.5-7.3 1.3-.7 2.3-2 4.1-2.1 2.8-.2 8 2.8 9.3 4.7 2.3 1 1.3 3.5 1.3 5.1-3 1.4-9.8.1-13.7 1zm-26.7 24.4c.4 2.9-.1 6.9 1.9 9.5 2.8.2 11.8-.7 14.2-1.6 5.6-1.9 8.4-10.8 9.5-15.1-5.9-.1-19.3 5.4-25.6 7.2z"/>
      <path fill="#2a3b92" d="M-59 356.4h-89.4c-12.8 0-19.2 4.7-19.2 14.1v141.3c0 9.4 6.4 14.1 19.2 14.1H-59c12.8 0 19.2-4.7 19.2-14.1V370.4c0-9.3-6.4-14-19.2-14zm12.8 155.3c0 6.2-6.3 9.3-12.8 9.3h-89.4c-6.5 0-12.8-3.1-12.8-9.3V370.4c0-6.2 6.3-9.3 12.8-9.3H-59c6.5 0 12.8 3.1 12.8 9.3v141.3z"/>
    </g>
  </switch>
</svg>